<svg width="24" height="25" viewBox="0 0 24 25" fill="none" xmlns="http://www.w3.org/2000/svg">
<path fill-rule="evenodd" clip-rule="evenodd" d="M22.511 14.3639C20.2956 14.3639 19.184 17.0479 20.7505 18.6143C20.8191 18.683 20.8736 18.7644 20.9107 18.8541C20.9479 18.9438 20.967 19.0399 20.967 19.137C20.967 19.2341 20.9479 19.3302 20.9107 19.4198C20.8736 19.5095 20.8191 19.591 20.7505 19.6596L19.1595 21.2507C19.0209 21.3893 18.8329 21.4671 18.6368 21.4671C18.4408 21.4671 18.2528 21.3893 18.1142 21.2507C16.5478 19.6842 13.8638 20.7957 13.8638 23.0112C13.8638 23.2071 13.7859 23.395 13.6474 23.5336C13.5088 23.6721 13.3209 23.75 13.125 23.75H10.875C10.778 23.75 10.6819 23.7309 10.5922 23.6938C10.5025 23.6566 10.4211 23.6022 10.3524 23.5336C10.2838 23.4649 10.2294 23.3835 10.1923 23.2938C10.1551 23.2042 10.136 23.1081 10.136 23.011C10.136 20.7928 7.45406 19.682 5.88562 21.2505C5.747 21.3891 5.559 21.467 5.36297 21.467C5.16694 21.467 4.97893 21.3891 4.84031 21.2505L3.24952 19.6595C3.1109 19.5208 3.03303 19.3328 3.03303 19.1368C3.03303 18.9408 3.1109 18.7528 3.24952 18.6141C4.81598 17.0477 3.70444 14.3638 1.48898 14.3638C1.29303 14.3638 1.1051 14.2859 0.966513 14.1474C0.82793 14.0089 0.75005 13.821 0.75 13.625V11.375C0.749994 11.278 0.769104 11.1819 0.806239 11.0922C0.843375 11.0025 0.897808 10.9211 0.96643 10.8524C1.03505 10.7838 1.11652 10.7294 1.20618 10.6923C1.29584 10.6551 1.39194 10.636 1.48898 10.636C3.70444 10.636 4.81598 7.95205 3.24952 6.38562C3.1109 6.247 3.03303 6.059 3.03303 5.86297C3.03303 5.66694 3.1109 5.47893 3.24952 5.34031L4.84055 3.74928C4.90918 3.68064 4.99066 3.62618 5.08034 3.58903C5.17002 3.55188 5.26613 3.53276 5.3632 3.53276C5.46027 3.53276 5.55639 3.55188 5.64607 3.58903C5.73575 3.62618 5.81723 3.68064 5.88586 3.74928C7.45228 5.31575 10.1363 4.2042 10.1363 1.98875C10.1363 1.79284 10.2141 1.60496 10.3527 1.46643C10.4912 1.3279 10.6791 1.25005 10.875 1.25H13.125C13.222 1.24999 13.3181 1.2691 13.4078 1.30624C13.4975 1.34337 13.5789 1.39781 13.6476 1.46643C13.7162 1.53505 13.7706 1.61652 13.8077 1.70618C13.8449 1.79584 13.864 1.89194 13.864 1.98898C13.864 4.20444 16.548 5.31598 18.1144 3.74952C18.183 3.68088 18.2645 3.62643 18.3542 3.58928C18.4438 3.55213 18.54 3.53302 18.637 3.53302C18.7341 3.53302 18.8302 3.55213 18.9199 3.58928C19.0096 3.62643 19.0911 3.68088 19.1597 3.74952L20.7507 5.34055C20.8193 5.40918 20.8738 5.49066 20.9109 5.58034C20.9481 5.67002 20.9672 5.76613 20.9672 5.8632C20.9672 5.96027 20.9481 6.05639 20.9109 6.14607C20.8738 6.23575 20.8193 6.31723 20.7507 6.38586C19.1842 7.95228 20.2957 10.6363 22.5112 10.6363C22.7071 10.6363 22.895 10.7141 23.0336 10.8527C23.1721 10.9912 23.25 11.1791 23.25 11.375V13.625C23.25 13.722 23.2309 13.8181 23.1938 13.9078C23.1566 13.9975 23.1022 14.0789 23.0336 14.1476C22.9649 14.2162 22.8835 14.2706 22.7938 14.3077C22.7042 14.3449 22.6081 14.364 22.511 14.364V14.3639ZM18.889 12.4979C18.8886 11.1355 18.4842 9.80376 17.727 8.67115C16.9697 7.53854 15.8937 6.65589 14.6348 6.1348C13.376 5.61372 11.9909 5.47759 10.6547 5.74364C9.31854 6.00969 8.09124 6.66597 7.12801 7.6295C6.16478 8.59302 5.50887 9.82053 5.24323 11.1568C4.97759 12.4931 5.11414 13.8781 5.63561 15.1368C6.15708 16.3955 7.04006 17.4712 8.1729 18.2281C9.30575 18.985 10.6376 19.389 12 19.389C12.9049 19.389 13.8008 19.2107 14.6368 18.8644C15.4727 18.518 16.2323 18.0104 16.872 17.3705C17.5117 16.7306 18.0191 15.9709 18.3652 15.1348C18.7113 14.2988 18.8893 13.4027 18.889 12.4979ZM9.66947 10.4C9.66941 10.861 9.80606 11.3116 10.0621 11.6949C10.3182 12.0783 10.6822 12.377 11.1081 12.5535C11.5339 12.7299 12.0026 12.7761 12.4547 12.6862C12.9068 12.5963 13.3222 12.3743 13.6481 12.0484C13.9741 11.7224 14.1961 11.3071 14.286 10.855C14.376 10.4029 14.3298 9.93423 14.1534 9.50834C13.977 9.08245 13.6782 8.71844 13.2949 8.46235C12.9116 8.20626 12.461 8.06958 12 8.06961C11.3819 8.06962 10.7892 8.31514 10.3521 8.75217C9.91508 9.1892 9.66952 9.78193 9.66947 10.4ZM12 14.0737C11.0709 14.0735 10.1598 14.33 9.36723 14.8149C8.57467 15.2998 7.9315 15.9942 7.50867 16.8215C8.09018 17.4259 8.78767 17.9067 9.55939 18.2351C10.3311 18.5635 11.1612 18.7328 11.9999 18.7328C12.8385 18.7328 13.6686 18.5635 14.4403 18.2351C15.212 17.9067 15.9095 17.4259 16.491 16.8215C16.0683 15.9942 15.4252 15.2998 14.6327 14.8149C13.8402 14.33 12.9291 14.0735 12 14.0737Z" fill="black"/>
</svg>
