<svg width="25" height="25" viewBox="0 0 25 25" fill="none" xmlns="http://www.w3.org/2000/svg">
<g clip-path="url(#clip0_233_3878)">
<path d="M12.3334 0.5C5.71617 0.5 0.333374 5.8828 0.333374 12.5C0.333374 19.1172 5.71617 24.5 12.3334 24.5C18.9506 24.5 24.3334 19.1163 24.3334 12.5C24.3334 5.88373 18.9506 0.5 12.3334 0.5ZM12.3334 22.641C6.74236 22.641 2.19239 18.092 2.19239 12.5C2.19239 6.90805 6.74236 2.35902 12.3334 2.35902C17.9244 2.35902 22.4744 6.90805 22.4744 12.5C22.4744 18.092 17.9253 22.641 12.3334 22.641Z" fill="#64748B"/>
<path d="M16.9809 11.4869H13.2629V7.76889C13.2629 7.25579 12.8474 6.83936 12.3334 6.83936C11.8193 6.83936 11.4038 7.25579 11.4038 7.76889V11.4869H7.68582C7.17179 11.4869 6.75629 11.9034 6.75629 12.4164C6.75629 12.9295 7.17179 13.346 7.68582 13.346H11.4038V17.064C11.4038 17.5771 11.8193 17.9935 12.3334 17.9935C12.8474 17.9935 13.2629 17.5771 13.2629 17.064V13.346H16.9809C17.495 13.346 17.9105 12.9295 17.9105 12.4164C17.9105 11.9034 17.495 11.4869 16.9809 11.4869Z" fill="#64748B"/>
</g>
<defs>
<clipPath id="clip0_233_3878">
<rect width="24" height="24" fill="white" transform="translate(0.333374 0.5)"/>
</clipPath>
</defs>
</svg>
