<svg width="24" height="25" viewBox="0 0 24 25" fill="none" xmlns="http://www.w3.org/2000/svg">
<path d="M6.009 7C6.009 6.20888 6.2436 5.43552 6.68312 4.77772C7.12265 4.11992 7.74736 3.60723 8.47827 3.30448C9.20917 3.00173 10.0134 2.92252 10.7894 3.07686C11.5653 3.2312 12.278 3.61216 12.8374 4.17157C13.3968 4.73098 13.7778 5.44372 13.9321 6.21964C14.0865 6.99556 14.0073 7.79983 13.7045 8.53074C13.4018 9.26164 12.8891 9.88635 12.2313 10.3259C11.5735 10.7654 10.8001 11 10.009 11C8.94813 11 7.93072 10.5786 7.18057 9.82843C6.43043 9.07828 6.009 8.06087 6.009 7ZM16.057 14.68C16.0439 14.5876 15.999 14.5027 15.93 14.44C15.4051 13.9484 14.7867 13.5676 14.1115 13.3202C13.4363 13.0728 12.7182 12.9639 12 13H8C3.94 13 2.5 15.97 2.5 18.52C2.5 20.8 3.71 22 6 22H11.2C11.2394 22.0011 11.2786 21.9937 11.3149 21.9781C11.3512 21.9626 11.3836 21.9393 11.41 21.91C11.4656 21.852 11.4977 21.7754 11.5 21.695V20C11.5003 19.6023 11.6586 19.221 11.94 18.94L15.97 14.89C16.0246 14.8336 16.0557 14.7585 16.057 14.68ZM13 20V22.5H15.5L20.039 17.981L17.52 15.462L13 20ZM21.708 14.911L20.588 13.791C20.4006 13.6048 20.1472 13.5002 19.883 13.5002C19.6188 13.5002 19.3654 13.6048 19.178 13.791L18.219 14.761L20.738 17.28L21.708 16.321C21.8939 16.1337 21.9983 15.8804 21.9983 15.6165C21.9983 15.3526 21.8939 15.0983 21.708 14.911Z" fill="black"/>
</svg>
