<svg width="24" height="16" viewBox="0 0 24 16" fill="none" xmlns="http://www.w3.org/2000/svg">
<path d="M21.6334 0.324219H2.36642C1.06008 0.325676 0.00145749 1.3843 0 2.69064V13.3091C0.00145749 14.6154 1.06008 15.6741 2.36642 15.6755H21.6334C22.9398 15.6741 23.9985 14.6155 24 13.3091V2.69064C23.9985 1.3843 22.9398 0.325676 21.6334 0.324219ZM16.1696 7.99988L22.9934 2.25238C23.0392 2.39394 23.0625 2.54181 23.0624 2.69059V13.3091C23.0625 13.4578 23.0392 13.6057 22.9935 13.7473L16.1696 7.99988ZM21.6334 1.26172C21.9162 1.26143 22.1927 1.34554 22.4275 1.50328L12 10.2861L1.57243 1.50328C1.80717 1.34553 2.08365 1.26144 2.36647 1.26177L21.6334 1.26172ZM1.00659 13.7475C0.96079 13.6059 0.937494 13.458 0.937553 13.3092V2.69064C0.937519 2.54184 0.960814 2.39396 1.00659 2.25238L7.83035 7.99988L1.00659 13.7475ZM2.36642 14.7381C2.08364 14.7385 1.80719 14.6544 1.57243 14.4968L8.55797 8.613L11.698 11.2577C11.7825 11.3288 11.8894 11.3679 12 11.3679C12.1105 11.3679 12.2174 11.3288 12.3019 11.2577L15.4419 8.61295L22.4274 14.4965C22.1927 14.6542 21.9162 14.7384 21.6333 14.738H2.36642V14.7381Z" fill="black"/>
</svg>
