<svg width="23" height="20" viewBox="0 0 23 20" fill="none" xmlns="http://www.w3.org/2000/svg">
<g clip-path="url(#clip0_2034_294)">
<path d="M3.46484 8.74219L0 14.6797V3.75C0 2.37109 1.12109 1.25 2.5 1.25H7.08984C7.75391 1.25 8.39062 1.51172 8.85938 1.98047L9.89453 3.01562C10.3633 3.48438 11 3.74609 11.6641 3.74609H16.25C17.6289 3.74609 18.75 4.86719 18.75 6.24609V7.49609H5.625C4.73438 7.49609 3.91406 7.96875 3.46484 8.73828V8.74219ZM4.54297 9.37109C4.76953 8.98438 5.17969 8.75 5.625 8.75H21.25C21.6992 8.75 22.1094 8.98828 22.332 9.37891C22.5547 9.76953 22.5547 10.2461 22.3281 10.6328L17.9531 18.1328C17.7305 18.5156 17.3203 18.75 16.875 18.75H1.25C0.800781 18.75 0.390625 18.5117 0.167969 18.1211C-0.0546875 17.7305 -0.0546875 17.2539 0.171875 16.8672L4.54688 9.36719L4.54297 9.37109Z" fill="#374151"/>
</g>
<defs>
<clipPath id="clip0_2034_294">
<path d="M0 0H22.5V20H0V0Z" fill="white"/>
</clipPath>
</defs>
</svg>
