<svg width="21" height="16" viewBox="0 0 21 16" fill="none" xmlns="http://www.w3.org/2000/svg">
<path d="M0 2.25H20.25C20.25 1.00898 19.241 0 18 0H2.25C1.00898 0 0 1.00898 0 2.25ZM0 3.375V13.5C0 14.741 1.00898 15.75 2.25 15.75H18C19.241 15.75 20.25 14.741 20.25 13.5V3.375H0ZM2.25 13.1238C2.25 12.0867 3.09023 11.25 4.12383 11.25H8.25117C9.28828 11.25 10.125 12.0902 10.125 13.1238C10.125 13.3312 9.95625 13.5 9.74883 13.5H2.62617C2.41875 13.5 2.25 13.3312 2.25 13.1238ZM6.1875 5.625C6.78424 5.625 7.35653 5.86205 7.77849 6.28401C8.20045 6.70597 8.4375 7.27826 8.4375 7.875C8.4375 8.47174 8.20045 9.04403 7.77849 9.46599C7.35653 9.88795 6.78424 10.125 6.1875 10.125C5.59076 10.125 5.01847 9.88795 4.59651 9.46599C4.17455 9.04403 3.9375 8.47174 3.9375 7.875C3.9375 7.27826 4.17455 6.70597 4.59651 6.28401C5.01847 5.86205 5.59076 5.625 6.1875 5.625ZM12.375 6.1875C12.375 5.87813 12.6281 5.625 12.9375 5.625H17.4375C17.7469 5.625 18 5.87813 18 6.1875C18 6.49687 17.7469 6.75 17.4375 6.75H12.9375C12.6281 6.75 12.375 6.49687 12.375 6.1875ZM12.375 8.4375C12.375 8.12813 12.6281 7.875 12.9375 7.875H17.4375C17.7469 7.875 18 8.12813 18 8.4375C18 8.74687 17.7469 9 17.4375 9H12.9375C12.6281 9 12.375 8.74687 12.375 8.4375ZM12.375 10.6875C12.375 10.3781 12.6281 10.125 12.9375 10.125H17.4375C17.7469 10.125 18 10.3781 18 10.6875C18 10.9969 17.7469 11.25 17.4375 11.25H12.9375C12.6281 11.25 12.375 10.9969 12.375 10.6875Z" fill="white"/>
</svg>
