<svg width="24" height="25" viewBox="0 0 24 25" fill="none" xmlns="http://www.w3.org/2000/svg">
<path d="M12 5.24023C7.99681 5.24023 4.73999 8.49705 4.73999 12.5002C4.73999 16.5034 7.99681 19.7602 12 19.7602C16.0032 19.7602 19.26 16.5034 19.26 12.5002C19.26 8.49705 16.0032 5.24023 12 5.24023ZM17.901 11.8402H15.2865C15.2133 10.0388 14.8401 8.24697 14.193 6.98498C16.1891 7.78162 17.6551 9.62756 17.901 11.8402ZM12 18.4402C11.2427 18.4402 10.1644 16.4048 10.0332 13.1602H13.9668C13.8356 16.4048 12.7573 18.4402 12 18.4402ZM10.0332 11.8402C10.1644 8.59566 11.2427 6.56023 12 6.56023C12.7573 6.56023 13.8356 8.59566 13.9668 11.8402H10.0332ZM9.80697 6.98498C9.15986 8.24697 8.78668 10.0388 8.71353 11.8402H6.09898C6.34487 9.62756 7.81086 7.78162 9.80697 6.98498ZM6.09898 13.1602H8.71353C8.78668 14.9617 9.15987 16.7535 9.80697 18.0155C7.81086 17.2189 6.34487 15.3729 6.09898 13.1602ZM14.193 18.0155C14.8401 16.7535 15.2133 14.9617 15.2865 13.1602H17.901C17.6551 15.3729 16.1891 17.2189 14.193 18.0155Z" fill="black"/>
</svg>
