<svg width="24" height="25" viewBox="0 0 24 25" fill="none" xmlns="http://www.w3.org/2000/svg">
<g clip-path="url(#clip0_150_1291)">
<path fill-rule="evenodd" clip-rule="evenodd" d="M11.8278 20.6776V21.8736C11.8278 22.8328 11.3498 23.6608 10.5191 24.1404C10.1194 24.3711 9.67338 24.4998 9.21091 24.5C8.74802 24.5003 8.3021 24.3713 7.90216 24.1404L2.58391 21.0699C1.75315 20.5903 1.27521 19.7624 1.27521 18.8031V3.11741C1.27521 1.67408 2.44933 0.5 3.89261 0.5H15.6053C17.0487 0.5 18.2229 1.67398 18.2229 3.11741V6.42392C18.2229 6.89825 17.8378 7.28338 17.3635 7.28338C16.889 7.28338 16.5042 6.8983 16.5042 6.42392V3.11741C16.5042 2.6218 16.1009 2.21853 15.6053 2.21853H5.34194L10.5191 5.20808C11.3495 5.68761 11.8278 6.51542 11.8278 7.47434V18.9589H15.6053C16.1009 18.9589 16.5042 18.5558 16.5042 18.0602V15.1616C16.5042 14.687 16.8888 14.3022 17.3635 14.3022C17.838 14.3022 18.2229 14.687 18.2229 15.1616V18.0602C18.2229 19.5036 17.0487 20.6776 15.6053 20.6776H11.8278ZM19.7911 11.448L18.8446 12.3945C18.509 12.7301 18.5091 13.2741 18.8446 13.6097C18.9244 13.6896 19.0191 13.7529 19.1234 13.796C19.2276 13.8392 19.3394 13.8613 19.4523 13.8612C19.5651 13.8614 19.677 13.8393 19.7813 13.7961C19.8856 13.753 19.9804 13.6896 20.0601 13.6097L22.4732 11.1962C22.8087 10.8607 22.8087 10.3169 22.4732 9.98141L20.0601 7.56828C19.7245 7.23266 19.1804 7.2328 18.8447 7.56823C18.5092 7.90348 18.5093 8.44775 18.8447 8.78309L19.7911 9.72931H13.4508C12.976 9.72931 12.5915 10.1141 12.5915 10.5888C12.5915 11.0636 12.976 11.4481 13.4508 11.4481H19.7911V11.448Z" fill="black"/>
</g>
<defs>
<clipPath id="clip0_150_1291">
<rect width="24" height="24" fill="white" transform="translate(0 0.5)"/>
</clipPath>
</defs>
</svg>
