<svg width="25" height="25" viewBox="0 0 25 25" fill="none" xmlns="http://www.w3.org/2000/svg">
<g clip-path="url(#clip0_989_8550)">
<path d="M22.224 4.0625H2.44272C1.282 4.0625 0.333344 5.00698 0.333344 6.17188V18.8281C0.333344 19.9934 1.28261 20.9375 2.44272 20.9375H22.224C23.3847 20.9375 24.3333 19.993 24.3333 18.8281V6.17188C24.3333 5.0067 23.3842 4.0625 22.224 4.0625ZM21.9001 5.46875L12.8782 14.52C12.6033 14.7957 12.0635 14.7959 11.7885 14.52L2.76662 5.46875H21.9001ZM1.73959 18.5696V6.43039L7.78952 12.5L1.73959 18.5696ZM2.76662 19.5312L8.78228 13.496L10.7925 15.5128C11.6163 16.3393 13.0507 16.3389 13.8742 15.5128L15.8845 13.496L21.9001 19.5312H2.76662ZM22.9271 18.5696L16.8772 12.5L22.9271 6.43039V18.5696Z" fill="#64748B"/>
</g>
<defs>
<clipPath id="clip0_989_8550">
<rect width="24" height="24" fill="white" transform="translate(0.333344 0.5)"/>
</clipPath>
</defs>
</svg>
