<svg width="25" height="25" viewBox="0 0 25 25" fill="none" xmlns="http://www.w3.org/2000/svg">
<path d="M17.6523 18.0445C17.5587 18.0445 17.4689 18.0817 17.4028 18.1479C17.3366 18.2141 17.2994 18.3038 17.2994 18.3975V22.3599C17.2994 22.679 17.0396 22.9387 16.7202 22.9387H2.65726C2.50384 22.9385 2.35677 22.8774 2.24828 22.7689C2.13979 22.6604 2.07872 22.5133 2.07844 22.3599V2.63969C2.07844 2.32063 2.33821 2.06086 2.65726 2.06086H13.3126V4.96698C13.3126 5.37251 13.6426 5.7018 14.0477 5.7018H17.2994V8.09863C17.2994 8.19223 17.3366 8.28201 17.4028 8.34819C17.4689 8.41438 17.5587 8.45157 17.6523 8.45157C17.7459 8.45157 17.8357 8.41438 17.9019 8.34819C17.9681 8.28201 18.0053 8.19223 18.0053 8.09863V5.34922C18.0053 5.2758 17.965 5.1611 17.8937 5.09333C17.8581 5.05945 13.9397 1.47745 13.9041 1.44745L13.9037 1.4471C13.837 1.3909 13.7534 1.3585 13.6662 1.35498H2.65762C2.31697 1.35535 1.99039 1.49082 1.74948 1.73165C1.50858 1.97249 1.37303 2.29904 1.37256 2.63969V22.3599C1.37303 22.7005 1.50853 23.027 1.74936 23.2678C1.99018 23.5087 2.31668 23.6442 2.65726 23.6446H16.7202C17.0608 23.6443 17.3874 23.5088 17.6283 23.268C17.8692 23.0271 18.0048 22.7006 18.0053 22.3599V18.3975C18.0053 18.3038 17.9681 18.2141 17.9019 18.1479C17.8357 18.0817 17.7459 18.0445 17.6523 18.0445ZM14.0477 4.99627C14.0439 4.99627 14.0401 4.99551 14.0366 4.99404C14.033 4.99256 14.0298 4.9904 14.0271 4.98767C14.0245 4.98495 14.0223 4.98172 14.0209 4.97816C14.0195 4.97461 14.0187 4.97081 14.0188 4.96698V2.50804L16.7421 4.99627H14.0477Z" fill="#64748B"/>
<path d="M3.47819 4.6595H9.66524C9.75885 4.6595 9.84862 4.62231 9.91481 4.55612C9.981 4.48993 10.0182 4.40016 10.0182 4.30655C10.0182 4.21295 9.981 4.12318 9.91481 4.05699C9.84862 3.9908 9.75885 3.95361 9.66524 3.95361H3.47854C3.38493 3.95361 3.29516 3.9908 3.22897 4.05699C3.16278 4.12318 3.1256 4.21295 3.1256 4.30655C3.1256 4.40016 3.16278 4.48993 3.22897 4.55612C3.29516 4.62231 3.38458 4.6595 3.47819 4.6595ZM16.0115 7.58361C16.0115 7.49001 15.9743 7.40024 15.9081 7.33405C15.8419 7.26786 15.7521 7.23067 15.6585 7.23067H3.47854C3.38493 7.23067 3.29516 7.26786 3.22897 7.33405C3.16278 7.40024 3.1256 7.49001 3.1256 7.58361C3.1256 7.67722 3.16278 7.76699 3.22897 7.83318C3.29516 7.89937 3.38493 7.93655 3.47854 7.93655H15.6585C15.7521 7.93655 15.8419 7.89937 15.9081 7.83318C15.9743 7.76699 16.0115 7.67722 16.0115 7.58361ZM9.6656 10.5077H3.47854C3.38493 10.5077 3.29516 10.5449 3.22897 10.6111C3.16278 10.6773 3.1256 10.7671 3.1256 10.8607C3.1256 10.9543 3.16278 11.044 3.22897 11.1102C3.29516 11.1764 3.38493 11.2136 3.47854 11.2136H9.6656C9.7592 11.2136 9.84898 11.1764 9.91516 11.1102C9.98135 11.044 10.0185 10.9543 10.0185 10.8607C10.0185 10.7671 9.98135 10.6773 9.91516 10.6111C9.84898 10.5449 9.7592 10.5077 9.6656 10.5077ZM3.47819 14.491H9.66524C9.75885 14.491 9.84862 14.4538 9.91481 14.3877C9.981 14.3215 10.0182 14.2317 10.0182 14.1381C10.0182 14.0445 9.981 13.9547 9.91481 13.8885C9.84862 13.8223 9.75885 13.7851 9.66524 13.7851H3.47854C3.38493 13.7851 3.29516 13.8223 3.22897 13.8885C3.16278 13.9547 3.1256 14.0445 3.1256 14.1381C3.1256 14.2317 3.16278 14.3215 3.22897 14.3877C3.29516 14.4538 3.38458 14.491 3.47819 14.491ZM11.0467 17.0622H3.47819C3.38458 17.0622 3.29481 17.0994 3.22862 17.1656C3.16243 17.2318 3.12524 17.3215 3.12524 17.4151C3.12524 17.5087 3.16243 17.5985 3.22862 17.6647C3.29481 17.7309 3.38458 17.7681 3.47819 17.7681H11.0467C11.1403 17.7681 11.23 17.7309 11.2962 17.6647C11.3624 17.5985 11.3996 17.5087 11.3996 17.4151C11.3996 17.3215 11.3624 17.2318 11.2962 17.1656C11.23 17.0994 11.1403 17.0622 11.0467 17.0622ZM3.12524 20.6922C3.12524 20.7858 3.16243 20.8756 3.22862 20.9418C3.29481 21.008 3.38458 21.0451 3.47819 21.0451H15.6585C15.7521 21.0451 15.8419 21.008 15.9081 20.9418C15.9743 20.8756 16.0115 20.7858 16.0115 20.6922C16.0115 20.5986 15.9743 20.5088 15.9081 20.4426C15.8419 20.3764 15.7521 20.3393 15.6585 20.3393H3.47854C3.38493 20.3393 3.29516 20.3764 3.22897 20.4426C3.16278 20.5088 3.12524 20.5986 3.12524 20.6922ZM14.3142 9.87173C12.738 10.207 11.6763 11.568 11.5987 13.051C11.5962 13.0973 11.6029 13.1437 11.6183 13.1874C11.6337 13.2311 11.6576 13.2714 11.6887 13.3059C11.7197 13.3403 11.7572 13.3684 11.799 13.3884C11.8409 13.4083 11.8862 13.4199 11.9325 13.4223L11.9512 13.4227C12.0416 13.4226 12.1284 13.3879 12.194 13.3258C12.2595 13.2636 12.2987 13.1786 12.3035 13.0884C12.366 11.8962 13.224 10.8254 14.461 10.5624C14.5526 10.543 14.6327 10.4879 14.6837 10.4094C14.7347 10.3308 14.7524 10.2353 14.733 10.1437C14.7135 10.0521 14.6584 9.97197 14.5799 9.92097C14.5014 9.86997 14.4058 9.85226 14.3142 9.87173Z" fill="#64748B"/>
<path d="M23.3661 17.7076L22.6793 17.1606C22.6059 17.1043 22.5134 17.0791 22.4216 17.0903C22.3298 17.1016 22.2461 17.1484 22.1885 17.2207C22.1309 17.2931 22.1039 17.3851 22.1135 17.4771C22.123 17.569 22.1683 17.6536 22.2395 17.7126L22.9263 18.2596C23.0158 18.3308 23.0903 18.4189 23.1457 18.5189C23.2011 18.6189 23.2362 18.7288 23.2491 18.8423C23.262 18.9559 23.2523 19.0709 23.2208 19.1808C23.1892 19.2906 23.1363 19.3932 23.065 19.4826C22.9939 19.572 22.9059 19.6466 22.8059 19.702C22.706 19.7574 22.5961 19.7926 22.4826 19.8055C22.369 19.8184 22.2541 19.8088 22.1442 19.7772C22.0344 19.7457 21.9318 19.6928 21.8425 19.6216L19.4421 17.7104L20.5263 16.3484L21.0568 16.7713C21.1301 16.8296 21.2235 16.8565 21.3166 16.846C21.4096 16.8355 21.4947 16.7884 21.553 16.7151C21.6114 16.6419 21.6383 16.5485 21.6278 16.4554C21.6172 16.3623 21.5702 16.2773 21.4969 16.2189L20.6898 15.5766C20.6165 15.5183 20.5232 15.4914 20.4302 15.5019C20.3372 15.5125 20.2522 15.5595 20.1939 15.6327L20.1515 15.6856L19.5025 15.1689C20.3753 13.1536 19.8046 10.827 18.0688 9.44879C17.506 9.00294 16.8513 8.68747 16.1519 8.52513C15.4525 8.36279 14.7258 8.35761 14.0241 8.50997C10.0588 9.3535 8.81716 14.4881 12.0296 17.0406C13.8109 18.4583 16.3673 18.4304 18.1094 17.0137L18.7122 17.4937L18.6699 17.5467C18.6116 17.6199 18.5848 17.7133 18.5954 17.8063C18.606 17.8993 18.6531 17.9843 18.7263 18.0426L21.4023 20.1736C21.5642 20.3027 21.75 20.3985 21.949 20.4557C22.1479 20.513 22.3562 20.5304 22.562 20.5071C22.7677 20.4837 22.9668 20.4201 23.1479 20.3197C23.329 20.2194 23.4885 20.0844 23.6174 19.9223C23.7464 19.7604 23.8423 19.5747 23.8995 19.3758C23.9567 19.1768 23.9741 18.9686 23.9508 18.7629C23.9275 18.5572 23.8638 18.3581 23.7635 18.1771C23.6632 17.996 23.5281 17.8365 23.3661 17.7076ZM12.469 16.4882C9.7161 14.3007 10.7993 9.91785 14.1734 9.19997C15.4158 8.92961 16.681 9.24903 17.635 10.0054C18.4662 10.6613 19.0133 11.6118 19.1627 12.66C19.3122 13.7082 19.0527 14.7738 18.438 15.6358L18.3102 15.8098C16.4555 17.817 14.0643 17.7577 12.469 16.4882ZM19.0129 16.0456L19.0136 16.0446L19.0143 16.0438L19.0165 16.0407C19.0705 15.9644 19.1223 15.8868 19.1718 15.8077L19.7114 16.2373L19.1516 16.9407L18.6279 16.5235C18.8167 16.3174 18.9289 16.1646 19.0129 16.0456Z" fill="#64748B"/>
</svg>
