<svg width="24" height="25" viewBox="0 0 24 25" fill="none" xmlns="http://www.w3.org/2000/svg">
<g clip-path="url(#clip0_150_1275)">
<path d="M21.379 17.413C20.633 16.7837 20.0336 15.9989 19.6226 15.1136C19.2117 14.2284 18.9992 13.264 19 12.288V9.5C19 5.981 16.386 3.068 13 2.58V1.5C13 1.23478 12.8946 0.98043 12.7071 0.792893C12.5196 0.605357 12.2652 0.5 12 0.5C11.7348 0.5 11.4804 0.605357 11.2929 0.792893C11.1053 0.98043 11 1.23478 11 1.5V2.58C7.61299 3.068 4.99999 5.981 4.99999 9.5V12.288C5.00037 13.266 4.78682 14.2322 4.3743 15.1189C3.96178 16.0056 3.36029 16.7913 2.61199 17.421C2.34155 17.6541 2.14879 17.9643 2.05953 18.31C1.97028 18.6557 1.98878 19.0205 2.11256 19.3554C2.23634 19.6903 2.4595 19.9794 2.75214 20.184C3.04478 20.3885 3.39294 20.4988 3.74999 20.5H20.25C21.215 20.5 22 19.715 22 18.75C22 18.238 21.777 17.754 21.379 17.413ZM12 24.5C12.864 24.4988 13.7012 24.1998 14.3705 23.6533C15.0397 23.1068 15.5001 22.3463 15.674 21.5H8.32599C8.4999 22.3463 8.96028 23.1068 9.62953 23.6533C10.2988 24.1998 11.136 24.4988 12 24.5Z" fill="black"/>
</g>
<defs>
<clipPath id="clip0_150_1275">
<rect width="24" height="24" fill="white" transform="translate(0 0.5)"/>
</clipPath>
</defs>
</svg>
