<svg width="25" height="25" viewBox="0 0 25 25" fill="none" xmlns="http://www.w3.org/2000/svg">
<g clip-path="url(#clip0_233_3884)">
<path d="M12.5 0.5C9.01067 0.5 6.17188 3.3388 6.17188 6.82812C6.17188 10.3175 9.01067 13.1562 12.5 13.1562C15.9893 13.1562 18.8281 10.3175 18.8281 6.82812C18.8281 3.3388 15.9893 0.5 12.5 0.5ZM20.3734 17.2904C18.6409 15.5313 16.3442 14.5625 13.9062 14.5625H11.0938C8.65588 14.5625 6.35909 15.5313 4.62659 17.2904C2.90258 19.0409 1.95312 21.3515 1.95312 23.7969C1.95312 24.1852 2.26794 24.5 2.65625 24.5H22.3438C22.7321 24.5 23.0469 24.1852 23.0469 23.7969C23.0469 21.3515 22.0974 19.0409 20.3734 17.2904Z" fill="#64748B"/>
</g>
<defs>
<clipPath id="clip0_233_3884">
<rect width="24" height="24" fill="white" transform="translate(0.5 0.5)"/>
</clipPath>
</defs>
</svg>
