<svg width="25" height="25" viewBox="0 0 25 25" fill="none" xmlns="http://www.w3.org/2000/svg">
<g clip-path="url(#clip0_1065_12421)">
<path d="M7.29328 5.96171C6.94715 5.6153 6.38559 5.6153 6.03946 5.96171C4.75434 7.24683 4.1227 9.03708 4.30626 10.8737C4.35206 11.3313 4.73751 11.6723 5.18765 11.6723C5.21723 11.6723 5.24704 11.6708 5.27662 11.6679C5.76403 11.6191 6.11957 11.1843 6.07082 10.6973C5.94018 9.39202 6.38592 8.12288 7.29328 7.21547C7.63968 6.8694 7.63968 6.30779 7.29328 5.96171Z" fill="#64748B"/>
<path d="M10.8046 0.5C5.21455 0.5 0.666687 5.04786 0.666687 10.6379C0.666687 16.228 5.21455 20.7759 10.8046 20.7759C16.3947 20.7759 20.9426 16.228 20.9426 10.6379C20.9426 5.04786 16.3947 0.5 10.8046 0.5ZM10.8046 19.0025C6.19231 19.0025 2.44011 15.2502 2.44011 10.6379C2.44011 6.02562 6.19231 2.27342 10.8046 2.27342C15.4167 2.27342 19.1691 6.02562 19.1691 10.6379C19.1691 15.2502 15.4169 19.0025 10.8046 19.0025Z" fill="#64748B"/>
<path d="M24.4069 22.9863L17.9635 16.543C17.6171 16.1966 17.0561 16.1966 16.7097 16.543C16.3633 16.8891 16.3633 17.4507 16.7097 17.7968L23.1531 24.2402C23.2353 24.3226 23.333 24.3881 23.4406 24.4326C23.5482 24.4772 23.6635 24.5001 23.78 24.4999C24.007 24.4999 24.2337 24.4134 24.4069 24.2402C24.7533 23.894 24.7533 23.3325 24.4069 22.9863Z" fill="#64748B"/>
</g>
<defs>
<clipPath id="clip0_1065_12421">
<rect width="24" height="24" fill="white" transform="translate(0.666687 0.5)"/>
</clipPath>
</defs>
</svg>
