<svg width="24" height="24" viewBox="0 0 24 24" fill="none" xmlns="http://www.w3.org/2000/svg">
<g clip-path="url(#clip0_380_2044)">
<path fill-rule="evenodd" clip-rule="evenodd" d="M14.865 13.403C14.4108 13.5886 14.1206 14.2997 13.8263 14.663C13.6753 14.8491 13.4953 14.8781 13.2633 14.7848C11.5584 14.1056 10.2516 12.968 9.31079 11.3991C9.15142 11.1558 9.18001 10.9636 9.3722 10.7377C9.65626 10.403 10.0134 10.0228 10.0903 9.57187C10.2609 8.57438 8.95688 5.48016 7.2347 6.88219C2.27907 10.9205 15.5016 21.6309 17.888 15.8381C18.563 14.1961 15.6178 13.0945 14.865 13.403ZM12 21.9037C10.2474 21.9037 8.52282 21.4378 7.01298 20.5556C6.77063 20.4136 6.47767 20.3761 6.20673 20.4497L2.92595 21.3502L4.06876 18.8325C4.1452 18.6644 4.17583 18.4791 4.15755 18.2954C4.13928 18.1116 4.07274 17.936 3.9647 17.7863C2.7422 16.0917 2.09579 14.0911 2.09579 12C2.09579 6.53859 6.5386 2.09578 12 2.09578C17.4614 2.09578 21.9038 6.53859 21.9038 12C21.9038 17.4609 17.4609 21.9037 12 21.9037ZM12 0C5.38313 0 9.41139e-06 5.38312 9.41139e-06 12C9.41139e-06 14.3278 0.660947 16.5633 1.91673 18.5034L0.0937594 22.5183C0.0113841 22.6996 -0.0176385 22.9007 0.0100879 23.0979C0.0378142 23.2952 0.121143 23.4804 0.250322 23.632C0.348844 23.7473 0.471174 23.8399 0.608897 23.9035C0.74662 23.967 0.896468 23.9999 1.04813 24C1.72407 24 5.40985 22.8417 6.34782 22.5844C8.08173 23.512 10.0266 24 12 24C18.6164 24 24 18.6164 24 12C24 5.38312 18.6164 0 12 0Z" fill="black"/>
</g>
<defs>
<clipPath id="clip0_380_2044">
<rect width="24" height="24" fill="white"/>
</clipPath>
</defs>
</svg>
